<svg xmlns="http://www.w3.org/2000/svg" viewBox="0 0 215 41"><path d="M214,1V40H1V1H214m1-1H0V41H215Z" style="fill:#8c8c8c"/><path d="M52.44,16.45a.23.23,0,0,1-.21.13.46.46,0,0,1-.27-.15,3.85,3.85,0,0,0-.44-.33,4.33,4.33,0,0,0-.71-.33,3.09,3.09,0,0,0-1-.15,3,3,0,0,0-1.08.18,2,2,0,0,0-.79.48,2,2,0,0,0-.48.7,2.21,2.21,0,0,0-.17.84,1.74,1.74,0,0,0,.25.95,2.17,2.17,0,0,0,.64.64,4.06,4.06,0,0,0,.91.45c.34.12.69.24,1.05.35s.7.25,1,.39a3.69,3.69,0,0,1,.91.53,2.62,2.62,0,0,1,.65.79,2.52,2.52,0,0,1,.24,1.16,3.76,3.76,0,0,1-.24,1.35A3.16,3.16,0,0,1,52,25.52a3.33,3.33,0,0,1-1.14.73,4.05,4.05,0,0,1-1.53.27,4.4,4.4,0,0,1-1.93-.4A4.5,4.5,0,0,1,46,25l.23-.36a.28.28,0,0,1,.22-.12.39.39,0,0,1,.19.1l.27.24.38.3a4.2,4.2,0,0,0,.52.31,3.77,3.77,0,0,0,1.56.33,3.21,3.21,0,0,0,1.2-.21,2.58,2.58,0,0,0,.89-.55,2.38,2.38,0,0,0,.56-.84,2.75,2.75,0,0,0,.19-1,1.82,1.82,0,0,0-.24-1,2.12,2.12,0,0,0-.65-.65,4.27,4.27,0,0,0-.91-.44l-1-.34c-.36-.11-.71-.24-1.05-.38a3.56,3.56,0,0,1-.91-.53,2.45,2.45,0,0,1-.64-.81,2.68,2.68,0,0,1-.25-1.21,3,3,0,0,1,.22-1.1,2.79,2.79,0,0,1,.63-.93,3.24,3.24,0,0,1,1-.65,3.84,3.84,0,0,1,1.4-.24,4.12,4.12,0,0,1,1.58.28,3.71,3.71,0,0,1,1.28.86Z" style="fill:#5e5e5e"/><path d="M56.25,15.68a.6.6,0,0,1-.06.27.71.71,0,0,1-.15.22.57.57,0,0,1-.23.15.6.6,0,0,1-.27.06.66.66,0,0,1-.27-.06.48.48,0,0,1-.22-.15.6.6,0,0,1-.16-.22.76.76,0,0,1,0-.27.86.86,0,0,1,0-.27.63.63,0,0,1,.16-.23.71.71,0,0,1,.22-.15.66.66,0,0,1,.27-.06.6.6,0,0,1,.27.06.91.91,0,0,1,.23.15.76.76,0,0,1,.15.23A.66.66,0,0,1,56.25,15.68Zm-.33,2.75v8h-.76v-8Z" style="fill:#5e5e5e"/><path d="M61.36,18.29a3.65,3.65,0,0,1,1,.13,3.25,3.25,0,0,1,.8.36h2V19c0,.14-.08.21-.23.22l-1.2.09a2.55,2.55,0,0,1,.34.68,2.74,2.74,0,0,1,.12.81A2.52,2.52,0,0,1,64,21.89a2.32,2.32,0,0,1-.58.8,2.59,2.59,0,0,1-.89.51,3.27,3.27,0,0,1-1.15.19,3.52,3.52,0,0,1-1.25-.21,1.71,1.71,0,0,0-.53.46.83.83,0,0,0-.19.51.64.64,0,0,0,.24.53,1.65,1.65,0,0,0,.64.27,5.61,5.61,0,0,0,.9.1l1,.05c.35,0,.69.06,1,.1a3.46,3.46,0,0,1,.91.26,1.56,1.56,0,0,1,.63.5,1.41,1.41,0,0,1,.24.86,2,2,0,0,1-.24.95,2.51,2.51,0,0,1-.72.81,3.62,3.62,0,0,1-1.13.56,4.66,4.66,0,0,1-1.49.22A5.38,5.38,0,0,1,60,29.18a3.23,3.23,0,0,1-1.06-.46,2,2,0,0,1-.65-.68,1.63,1.63,0,0,1-.21-.81,1.61,1.61,0,0,1,.41-1.09,2.67,2.67,0,0,1,1.15-.7A1.43,1.43,0,0,1,59,25a1,1,0,0,1-.23-.71,1.12,1.12,0,0,1,.06-.35,1.57,1.57,0,0,1,.19-.36,2,2,0,0,1,.31-.34,1.84,1.84,0,0,1,.42-.29,2.37,2.37,0,0,1-.88-.87,2.44,2.44,0,0,1-.32-1.28,2.68,2.68,0,0,1,.2-1,2.32,2.32,0,0,1,.58-.8,2.5,2.5,0,0,1,.9-.52A3.34,3.34,0,0,1,61.36,18.29Zm3,8.64a.9.9,0,0,0-.2-.61,1.23,1.23,0,0,0-.52-.35,3.13,3.13,0,0,0-.76-.19c-.28,0-.58-.06-.89-.07L61,25.66a7.37,7.37,0,0,1-.88-.1,4.32,4.32,0,0,0-.57.28,2.26,2.26,0,0,0-.44.35,1.71,1.71,0,0,0-.29.43,1.27,1.27,0,0,0-.1.52,1.22,1.22,0,0,0,.18.65,1.47,1.47,0,0,0,.53.52,2.65,2.65,0,0,0,.85.35,4.47,4.47,0,0,0,1.16.13,4.54,4.54,0,0,0,1.13-.14,3.28,3.28,0,0,0,.91-.38,2,2,0,0,0,.61-.59A1.34,1.34,0,0,0,64.31,26.93Zm-3-4.06a2.59,2.59,0,0,0,.91-.15,1.8,1.8,0,0,0,.67-.41,1.76,1.76,0,0,0,.41-.63,2.47,2.47,0,0,0,0-1.64,1.79,1.79,0,0,0-1.09-1,2.81,2.81,0,0,0-1.81,0,1.76,1.76,0,0,0-.67.41,1.52,1.52,0,0,0-.42.63,2.32,2.32,0,0,0,0,1.64,1.66,1.66,0,0,0,.42.63,1.89,1.89,0,0,0,.67.41A2.59,2.59,0,0,0,61.36,22.87Z" style="fill:#5e5e5e"/><path d="M66.81,26.39v-8h.41a.22.22,0,0,1,.24.2l.07,1.2a4.6,4.6,0,0,1,1.27-1.11,3.14,3.14,0,0,1,1.61-.42,3,3,0,0,1,1.16.21,2.19,2.19,0,0,1,.83.6,2.55,2.55,0,0,1,.49.94,4.07,4.07,0,0,1,.17,1.25v5.09H72.3V21.3a2.75,2.75,0,0,0-.51-1.76,1.9,1.9,0,0,0-1.57-.63,2.73,2.73,0,0,0-1.45.4,4.19,4.19,0,0,0-1.2,1.11v6Z" style="fill:#5e5e5e"/><path d="M79.87,15.68a.67.67,0,0,1-.22.49.54.54,0,0,1-.22.15.66.66,0,0,1-.27.06.67.67,0,0,1-.28-.06.62.62,0,0,1-.22-.15.71.71,0,0,1-.15-.22.6.6,0,0,1-.06-.27.66.66,0,0,1,.06-.27.76.76,0,0,1,.15-.23,1.07,1.07,0,0,1,.22-.15.67.67,0,0,1,.28-.06.66.66,0,0,1,.27.06.86.86,0,0,1,.22.15.63.63,0,0,1,.16.23A.66.66,0,0,1,79.87,15.68Zm-.34,2.75v8h-.76v-8Z" style="fill:#5e5e5e"/><path d="M82.35,26.39v-8h.41a.23.23,0,0,1,.25.2l.07,1.2a4.42,4.42,0,0,1,1.26-1.11A3.18,3.18,0,0,1,86,18.3a3,3,0,0,1,1.15.21,2.12,2.12,0,0,1,.83.6,2.72,2.72,0,0,1,.5.94,4.41,4.41,0,0,1,.16,1.25v5.09h-.76V21.3a2.75,2.75,0,0,0-.51-1.76,1.9,1.9,0,0,0-1.57-.63,2.76,2.76,0,0,0-1.45.4,4.19,4.19,0,0,0-1.2,1.11v6Z" style="fill:#5e5e5e"/><path d="M93,18.43h.59a.28.28,0,0,1,.18.06.31.31,0,0,1,.1.13l2,6.28a2.58,2.58,0,0,1,.09.35c0,.11,0,.23.07.34,0-.11,0-.23.08-.34s.07-.23.12-.35l2.13-6.34a.23.23,0,0,1,.23-.17h.31a.23.23,0,0,1,.23.17l2.1,6.34a6.77,6.77,0,0,1,.2.7l.06-.34c0-.12.06-.24.1-.36l2-6.28a.25.25,0,0,1,.27-.19h.56l-2.66,8h-.56c-.09,0-.15-.06-.19-.17l-2.18-6.46a2.17,2.17,0,0,1-.07-.24l-.06-.24a2,2,0,0,1,0,.24,2.17,2.17,0,0,1-.07.24l-2.21,6.46c0,.11-.09.17-.19.17h-.53Z" style="fill:#5e5e5e"/><path d="M107.2,15.68a.6.6,0,0,1-.06.27.71.71,0,0,1-.15.22.57.57,0,0,1-.23.15.6.6,0,0,1-.27.06.66.66,0,0,1-.27-.06.48.48,0,0,1-.22-.15.6.6,0,0,1-.16-.22.76.76,0,0,1,0-.27.86.86,0,0,1,0-.27.63.63,0,0,1,.16-.23.71.71,0,0,1,.22-.15.66.66,0,0,1,.27-.06.6.6,0,0,1,.27.06.91.91,0,0,1,.23.15.76.76,0,0,1,.15.23A.66.66,0,0,1,107.2,15.68Zm-.33,2.75v8h-.76v-8Z" style="fill:#5e5e5e"/><path d="M111.85,26.52a1.68,1.68,0,0,1-1.25-.45,1.89,1.89,0,0,1-.45-1.39V19.24H109a.23.23,0,0,1-.14,0,.18.18,0,0,1-.06-.14v-.3l1.36-.09.19-2.85a.31.31,0,0,1,.06-.13.22.22,0,0,1,.14,0h.36v3h2.5v.56h-2.5v5.4a1.91,1.91,0,0,0,.08.57,1.22,1.22,0,0,0,.23.39,1,1,0,0,0,.35.22,1.25,1.25,0,0,0,.43.07,1.46,1.46,0,0,0,.5-.08,2,2,0,0,0,.36-.19,1.8,1.8,0,0,0,.25-.18.22.22,0,0,1,.15-.08.16.16,0,0,1,.13.08l.21.33a2.1,2.1,0,0,1-.78.54A2.32,2.32,0,0,1,111.85,26.52Z" style="fill:#5e5e5e"/><path d="M115.39,26.39V14.75h.76v5a4.63,4.63,0,0,1,1.26-1.09,3.23,3.23,0,0,1,1.59-.4,3,3,0,0,1,1.15.21,2.12,2.12,0,0,1,.83.6,2.72,2.72,0,0,1,.5.94,4.41,4.41,0,0,1,.16,1.25v5.09h-.76V21.3a2.75,2.75,0,0,0-.51-1.76,1.9,1.9,0,0,0-1.57-.63,2.76,2.76,0,0,0-1.45.4,4.19,4.19,0,0,0-1.2,1.11v6Z" style="fill:#5e5e5e"/><path d="M132.38,25.85a8.55,8.55,0,0,0,1.06-.06,6,6,0,0,0,.9-.18,5.2,5.2,0,0,0,.78-.29,6.72,6.72,0,0,0,.75-.39V21.88h-2.18a.2.2,0,0,1-.15-.05.18.18,0,0,1-.06-.13v-.45h3.13v4a7,7,0,0,1-.88.52,5.17,5.17,0,0,1-1,.39,6.33,6.33,0,0,1-1.12.24,8.93,8.93,0,0,1-1.32.09,5.75,5.75,0,0,1-2.23-.42,4.88,4.88,0,0,1-1.74-1.16,5.31,5.31,0,0,1-1.12-1.83,7.31,7.31,0,0,1,0-4.77,4.95,4.95,0,0,1,2.92-3,6.53,6.53,0,0,1,2.36-.41,7.29,7.29,0,0,1,1.19.09,5.07,5.07,0,0,1,1,.26,4.2,4.2,0,0,1,.88.42,5.53,5.53,0,0,1,.79.58l-.22.35a.22.22,0,0,1-.2.12.28.28,0,0,1-.13,0,1.42,1.42,0,0,1-.35-.22,3.61,3.61,0,0,0-.62-.37,4.92,4.92,0,0,0-1-.34,5.73,5.73,0,0,0-1.42-.16,5.26,5.26,0,0,0-2,.36A4.06,4.06,0,0,0,129,17a4.34,4.34,0,0,0-1,1.59,6.16,6.16,0,0,0-.34,2.12,6.32,6.32,0,0,0,.34,2.16,4.56,4.56,0,0,0,1,1.61,4,4,0,0,0,1.48,1A5,5,0,0,0,132.38,25.85Z" style="fill:#5e5e5e"/><path d="M140.43,15.68a.67.67,0,0,1-.22.49.54.54,0,0,1-.22.15.66.66,0,0,1-.27.06.67.67,0,0,1-.28-.06.54.54,0,0,1-.22-.15.71.71,0,0,1-.15-.22.6.6,0,0,1-.06-.27.66.66,0,0,1,.06-.27.76.76,0,0,1,.15-.23.86.86,0,0,1,.22-.15.67.67,0,0,1,.28-.06A.66.66,0,0,1,140,15a.86.86,0,0,1,.22.15.63.63,0,0,1,.16.23A.66.66,0,0,1,140.43,15.68Zm-.34,2.75v8h-.76v-8Z" style="fill:#5e5e5e"/><path d="M145.08,26.52a1.7,1.7,0,0,1-1.26-.45,1.89,1.89,0,0,1-.45-1.39V19.24h-1.14a.24.24,0,0,1-.15,0,.22.22,0,0,1-.05-.14v-.3l1.36-.09.19-2.85a.18.18,0,0,1,.06-.13.2.2,0,0,1,.14,0h.35v3h2.51v.56h-2.51v5.4a1.62,1.62,0,0,0,.09.57.94.94,0,0,0,.23.39.91.91,0,0,0,.35.22,1.18,1.18,0,0,0,.43.07,1.44,1.44,0,0,0,.49-.08,2,2,0,0,0,.36-.19,1.35,1.35,0,0,0,.25-.18.27.27,0,0,1,.15-.08.15.15,0,0,1,.13.08l.21.33a2.06,2.06,0,0,1-.77.54A2.35,2.35,0,0,1,145.08,26.52Z" style="fill:#5e5e5e"/><path d="M148.61,26.39V14.75h.76v5a4.63,4.63,0,0,1,1.26-1.09,3.23,3.23,0,0,1,1.59-.4,3,3,0,0,1,1.16.21,2.16,2.16,0,0,1,.82.6,2.57,2.57,0,0,1,.5.94,4.39,4.39,0,0,1,.17,1.25v5.09h-.76V21.3a2.7,2.7,0,0,0-.52-1.76,1.89,1.89,0,0,0-1.56-.63,2.77,2.77,0,0,0-1.46.4,4.19,4.19,0,0,0-1.2,1.11v6Z" style="fill:#5e5e5e"/><path d="M157.83,18.43v5.09a2.72,2.72,0,0,0,.51,1.75,1.89,1.89,0,0,0,1.57.64,2.76,2.76,0,0,0,1.45-.4,4.16,4.16,0,0,0,1.21-1.1v-6h.76v8h-.42a.2.2,0,0,1-.23-.21L162.61,25a4.46,4.46,0,0,1-1.28,1.1,3.14,3.14,0,0,1-1.61.42,3,3,0,0,1-1.16-.21,2.19,2.19,0,0,1-.83-.6,2.6,2.6,0,0,1-.49-.95,4,4,0,0,1-.17-1.24V18.43Z" style="fill:#5e5e5e"/><path d="M166,26.39V14.75h.76v5.07A4.12,4.12,0,0,1,168,18.71a3.09,3.09,0,0,1,1.57-.41,2.8,2.8,0,0,1,2.29,1,4.83,4.83,0,0,1,.82,3.05,5.73,5.73,0,0,1-.23,1.63,4,4,0,0,1-.67,1.31,3.18,3.18,0,0,1-1.09.87,3.23,3.23,0,0,1-1.49.32,3,3,0,0,1-1.43-.32,3.05,3.05,0,0,1-1-1l-.05,1a.19.19,0,0,1-.21.2Zm3.34-7.48a2.54,2.54,0,0,0-1.43.41,4.1,4.1,0,0,0-1.15,1.13v4.2a2.79,2.79,0,0,0,1,1,2.9,2.9,0,0,0,1.28.27,2.79,2.79,0,0,0,1.23-.25,2.51,2.51,0,0,0,.89-.73,3.32,3.32,0,0,0,.53-1.12,5.33,5.33,0,0,0,.18-1.43,4.29,4.29,0,0,0-.65-2.62A2.28,2.28,0,0,0,169.34,18.91Z" style="fill:#5e5e5e"/><path d="M23.33,9.18a10.89,10.89,0,0,0-2.71,21.19c.55.09.75-.23.75-.52s0-1.12,0-2c-2.74.51-3.44-.66-3.66-1.28A3.91,3.91,0,0,0,16.58,25c-.38-.21-.92-.71,0-.73a2.16,2.16,0,0,1,1.67,1.12,2.33,2.33,0,0,0,3.17.9,2.28,2.28,0,0,1,.7-1.46c-2.43-.27-5-1.21-5-5.37a4.25,4.25,0,0,1,1.12-2.93,3.89,3.89,0,0,1,.11-2.88s.91-.29,3,1.11a10.22,10.22,0,0,1,5.45,0c2.08-1.41,3-1.11,3-1.11a3.89,3.89,0,0,1,.11,2.88A4.24,4.24,0,0,1,31,19.47c0,4.18-2.55,5.1-5,5.37a2.61,2.61,0,0,1,.73,2c0,1.45,0,2.62,0,3s.2.63.75.52A10.89,10.89,0,0,0,23.33,9.18Z" style="fill:#8c8c8c;fill-rule:evenodd"/></svg>