<svg xmlns="http://www.w3.org/2000/svg" viewBox="0 0 215 41"><path d="M214,1V40H1V1H214m1-1H0V41H215Z" style="fill:#8c8c8c"/><path d="M52.44,16.45a.23.23,0,0,1-.21.13.46.46,0,0,1-.27-.15c-.11-.1-.26-.2-.44-.33a4.33,4.33,0,0,0-.71-.33,3.09,3.09,0,0,0-1-.15,3,3,0,0,0-1.08.18,2,2,0,0,0-.79.48,2,2,0,0,0-.48.7,2.21,2.21,0,0,0-.17.84,1.72,1.72,0,0,0,.25.95,2.17,2.17,0,0,0,.64.64,4.06,4.06,0,0,0,.91.45c.34.12.69.24,1.05.35s.7.25,1,.39a3.69,3.69,0,0,1,.91.53,2.62,2.62,0,0,1,.65.79,2.52,2.52,0,0,1,.24,1.16,3.76,3.76,0,0,1-.24,1.35A3.16,3.16,0,0,1,52,25.52a3.33,3.33,0,0,1-1.14.73,4.05,4.05,0,0,1-1.53.27,4.26,4.26,0,0,1-1.93-.4A4.5,4.5,0,0,1,46,25l.23-.35a.26.26,0,0,1,.22-.13.39.39,0,0,1,.19.1l.27.24.38.3a4.2,4.2,0,0,0,.52.31,3.87,3.87,0,0,0,.68.23,3.38,3.38,0,0,0,.88.1,3.21,3.21,0,0,0,1.2-.21,2.58,2.58,0,0,0,.89-.55,2.38,2.38,0,0,0,.56-.84,2.73,2.73,0,0,0,.19-1,1.86,1.86,0,0,0-.24-1,2.12,2.12,0,0,0-.65-.65,4.27,4.27,0,0,0-.91-.44l-1-.34c-.36-.11-.71-.24-1.05-.38a3.56,3.56,0,0,1-.91-.53,2.35,2.35,0,0,1-.64-.81,2.68,2.68,0,0,1-.25-1.21,2.91,2.91,0,0,1,.22-1.09,2.73,2.73,0,0,1,.63-.94,3.05,3.05,0,0,1,1-.64,3.64,3.64,0,0,1,1.4-.25,4.12,4.12,0,0,1,1.58.28,3.71,3.71,0,0,1,1.28.86Z" style="fill:#5e5e5e"/><path d="M56.25,15.69a.58.58,0,0,1-.06.26.71.71,0,0,1-.15.22.73.73,0,0,1-.23.16.76.76,0,0,1-.27.05.81.81,0,0,1-.27-.05.87.87,0,0,1-.38-.38.75.75,0,0,1,0-.26.87.87,0,0,1,0-.28.73.73,0,0,1,.16-.23.71.71,0,0,1,.22-.15.63.63,0,0,1,.27-.06.6.6,0,0,1,.27.06.67.67,0,0,1,.38.38A.67.67,0,0,1,56.25,15.69Zm-.33,2.74v8h-.76v-8Z" style="fill:#5e5e5e"/><path d="M61.36,18.29a3.65,3.65,0,0,1,1,.13,3.25,3.25,0,0,1,.8.36h2V19c0,.14-.08.21-.23.22l-1.2.09a2.55,2.55,0,0,1,.34.68,2.76,2.76,0,0,1,.12.82,2.51,2.51,0,0,1-.21,1,2.32,2.32,0,0,1-.58.8,2.79,2.79,0,0,1-.89.52,3.8,3.8,0,0,1-2.4,0,1.71,1.71,0,0,0-.53.46.83.83,0,0,0-.19.51.64.64,0,0,0,.24.53,1.65,1.65,0,0,0,.64.27,5.61,5.61,0,0,0,.9.1l1,.05c.35,0,.69.06,1,.11a3.12,3.12,0,0,1,.91.25,1.65,1.65,0,0,1,.63.5,1.41,1.41,0,0,1,.24.86,2,2,0,0,1-.24.95,2.51,2.51,0,0,1-.72.81,3.86,3.86,0,0,1-1.13.57,5,5,0,0,1-1.49.21A5.82,5.82,0,0,1,60,29.19a3.46,3.46,0,0,1-1.06-.47,2,2,0,0,1-.65-.68,1.63,1.63,0,0,1-.21-.81,1.61,1.61,0,0,1,.41-1.09,2.67,2.67,0,0,1,1.15-.7A1.43,1.43,0,0,1,59,25a1,1,0,0,1-.23-.71,1.12,1.12,0,0,1,.06-.35,1.57,1.57,0,0,1,.19-.36,2,2,0,0,1,.31-.34,1.84,1.84,0,0,1,.42-.29,2.37,2.37,0,0,1-.88-.87,2.42,2.42,0,0,1-.32-1.27,2.69,2.69,0,0,1,.2-1.05,2.32,2.32,0,0,1,.58-.8,2.5,2.5,0,0,1,.9-.52A3.34,3.34,0,0,1,61.36,18.29Zm3,8.64a.9.9,0,0,0-.2-.61,1.23,1.23,0,0,0-.52-.35,2.74,2.74,0,0,0-.76-.18c-.28,0-.58-.06-.89-.08L61,25.66a5.76,5.76,0,0,1-.88-.1,6.05,6.05,0,0,0-.57.28,2.26,2.26,0,0,0-.44.35,1.71,1.71,0,0,0-.29.43,1.27,1.27,0,0,0-.1.52,1.22,1.22,0,0,0,.18.65,1.47,1.47,0,0,0,.53.52,2.65,2.65,0,0,0,.85.35,4.47,4.47,0,0,0,1.16.13,4.54,4.54,0,0,0,1.13-.14,3.28,3.28,0,0,0,.91-.38,2,2,0,0,0,.61-.59A1.34,1.34,0,0,0,64.31,26.93Zm-3-4.06a2.59,2.59,0,0,0,.91-.15,1.8,1.8,0,0,0,.67-.41,1.76,1.76,0,0,0,.41-.63,2.47,2.47,0,0,0,0-1.64,1.79,1.79,0,0,0-1.09-1,2.81,2.81,0,0,0-1.81,0,1.76,1.76,0,0,0-.67.41,1.52,1.52,0,0,0-.42.63,2.32,2.32,0,0,0,0,1.64,1.66,1.66,0,0,0,.42.63,1.89,1.89,0,0,0,.67.41A2.59,2.59,0,0,0,61.36,22.87Z" style="fill:#5e5e5e"/><path d="M66.81,26.39v-8h.41a.22.22,0,0,1,.24.2l.07,1.2a4.6,4.6,0,0,1,1.27-1.11,3.14,3.14,0,0,1,1.61-.42,3,3,0,0,1,1.16.21,2.19,2.19,0,0,1,.83.6,2.63,2.63,0,0,1,.49.94,4.07,4.07,0,0,1,.17,1.25v5.09H72.3V21.3a2.75,2.75,0,0,0-.51-1.76,1.9,1.9,0,0,0-1.57-.63,2.73,2.73,0,0,0-1.45.4,4.19,4.19,0,0,0-1.2,1.11v6Z" style="fill:#5e5e5e"/><path d="M79.87,15.69a.58.58,0,0,1-.06.26.6.6,0,0,1-.16.22.69.69,0,0,1-.22.16.86.86,0,0,1-.27.05.87.87,0,0,1-.28-.05.82.82,0,0,1-.22-.16.71.71,0,0,1-.15-.22.58.58,0,0,1-.06-.26.67.67,0,0,1,.06-.28.91.91,0,0,1,.15-.23,1.07,1.07,0,0,1,.22-.15.67.67,0,0,1,.28-.06.66.66,0,0,1,.27.06.86.86,0,0,1,.22.15.73.73,0,0,1,.16.23A.67.67,0,0,1,79.87,15.69Zm-.34,2.74v8h-.76v-8Z" style="fill:#5e5e5e"/><path d="M82.35,26.39v-8h.41a.22.22,0,0,1,.24.2l.08,1.2a4.42,4.42,0,0,1,1.26-1.11A3.18,3.18,0,0,1,86,18.3a3,3,0,0,1,1.15.21,2.12,2.12,0,0,1,.83.6,2.82,2.82,0,0,1,.5.94,4.41,4.41,0,0,1,.16,1.25v5.09h-.76V21.3a2.75,2.75,0,0,0-.51-1.76,1.9,1.9,0,0,0-1.57-.63,2.76,2.76,0,0,0-1.45.4,4.19,4.19,0,0,0-1.2,1.11v6Z" style="fill:#5e5e5e"/><path d="M93,18.43h.59a.28.28,0,0,1,.18.06.31.31,0,0,1,.1.13l2,6.28a2.58,2.58,0,0,1,.09.35c0,.12,0,.23.07.34,0-.11,0-.22.08-.34s.07-.23.12-.35l2.13-6.34a.23.23,0,0,1,.23-.17h.31a.23.23,0,0,1,.23.17l2.1,6.34a6.77,6.77,0,0,1,.2.7l.06-.34c0-.12.06-.24.1-.36l2-6.28a.25.25,0,0,1,.27-.19h.56l-2.66,8h-.56c-.09,0-.15-.06-.19-.17l-2.18-6.46a2.17,2.17,0,0,1-.07-.24l-.06-.24a2,2,0,0,1,0,.24,2.17,2.17,0,0,1-.07.24l-2.21,6.46c0,.11-.09.17-.19.17h-.53Z" style="fill:#5e5e5e"/><path d="M107.2,15.69a.58.58,0,0,1-.06.26.71.71,0,0,1-.15.22.73.73,0,0,1-.23.16.76.76,0,0,1-.27.05.86.86,0,0,1-.27-.05.87.87,0,0,1-.38-.38.75.75,0,0,1,0-.26.87.87,0,0,1,0-.28.73.73,0,0,1,.16-.23.71.71,0,0,1,.22-.15.66.66,0,0,1,.27-.06.6.6,0,0,1,.27.06.67.67,0,0,1,.38.38A.67.67,0,0,1,107.2,15.69Zm-.33,2.74v8h-.76v-8Z" style="fill:#5e5e5e"/><path d="M111.85,26.52a1.68,1.68,0,0,1-1.25-.45,1.88,1.88,0,0,1-.45-1.38V19.25H109a.24.24,0,0,1-.14-.05.17.17,0,0,1-.06-.14v-.29l1.36-.1.19-2.85a.31.31,0,0,1,.06-.13.22.22,0,0,1,.14,0h.36v3h2.5v.57h-2.5v5.4a1.89,1.89,0,0,0,.08.56,1.22,1.22,0,0,0,.23.39,1,1,0,0,0,.35.22,1.48,1.48,0,0,0,.93,0,2,2,0,0,0,.36-.19,1.8,1.8,0,0,0,.25-.18.28.28,0,0,1,.15-.08.16.16,0,0,1,.13.08l.21.33a2.1,2.1,0,0,1-.78.54A2.32,2.32,0,0,1,111.85,26.52Z" style="fill:#5e5e5e"/><path d="M115.39,26.39V14.75h.76v5a4.42,4.42,0,0,1,1.26-1.08A3.14,3.14,0,0,1,119,18.3a3,3,0,0,1,1.15.21,2.12,2.12,0,0,1,.83.6,2.82,2.82,0,0,1,.5.94,4.41,4.41,0,0,1,.16,1.25v5.09h-.76V21.3a2.75,2.75,0,0,0-.51-1.76,1.9,1.9,0,0,0-1.57-.63,2.76,2.76,0,0,0-1.45.4,4.19,4.19,0,0,0-1.2,1.11v6Z" style="fill:#5e5e5e"/><path d="M132.38,25.85a8.55,8.55,0,0,0,1.06-.06,6,6,0,0,0,.9-.18,5.2,5.2,0,0,0,.78-.29,6.72,6.72,0,0,0,.75-.39v-3h-2.18a.2.2,0,0,1-.15-.06.18.18,0,0,1-.06-.13v-.45h3.13v4a8.55,8.55,0,0,1-.88.53,5.93,5.93,0,0,1-1,.38,6.33,6.33,0,0,1-1.12.24,8.93,8.93,0,0,1-1.32.09,5.75,5.75,0,0,1-2.23-.42,4.88,4.88,0,0,1-1.74-1.16,5.31,5.31,0,0,1-1.12-1.83,6.72,6.72,0,0,1-.4-2.38,6.64,6.64,0,0,1,.4-2.38,5.09,5.09,0,0,1,1.13-1.83,5.15,5.15,0,0,1,1.79-1.17,6.53,6.53,0,0,1,2.36-.41,7.29,7.29,0,0,1,1.19.09,5.07,5.07,0,0,1,1,.26,4.2,4.2,0,0,1,.88.42,5.53,5.53,0,0,1,.79.58l-.22.36a.22.22,0,0,1-.2.12.28.28,0,0,1-.13,0,1.42,1.42,0,0,1-.35-.22,3.61,3.61,0,0,0-.62-.37,4.92,4.92,0,0,0-1-.34,5.78,5.78,0,0,0-1.42-.15,5.26,5.26,0,0,0-2,.35A4.06,4.06,0,0,0,129,17a4.34,4.34,0,0,0-1,1.59,6.18,6.18,0,0,0-.34,2.13,6.3,6.3,0,0,0,.34,2.15,4.56,4.56,0,0,0,1,1.61,4,4,0,0,0,1.48,1A5,5,0,0,0,132.38,25.85Z" style="fill:#5e5e5e"/><path d="M142.14,18.3a3.9,3.9,0,0,1,1.53.29,3.17,3.17,0,0,1,1.14.83,3.67,3.67,0,0,1,.71,1.29,5.63,5.63,0,0,1,.24,1.7,5.5,5.5,0,0,1-.24,1.68,3.67,3.67,0,0,1-.71,1.29,3.17,3.17,0,0,1-1.14.83,4.32,4.32,0,0,1-3.06,0,3.3,3.3,0,0,1-1.15-.83,3.67,3.67,0,0,1-.71-1.29,5.5,5.5,0,0,1-.24-1.68,5.63,5.63,0,0,1,.24-1.7,3.67,3.67,0,0,1,.71-1.29,3.3,3.3,0,0,1,1.15-.83A3.9,3.9,0,0,1,142.14,18.3Zm0,7.59a3,3,0,0,0,1.24-.24,2.35,2.35,0,0,0,.89-.7,2.89,2.89,0,0,0,.53-1.1,5.85,5.85,0,0,0,0-2.88,2.87,2.87,0,0,0-.53-1.11,2.29,2.29,0,0,0-.89-.71,2.83,2.83,0,0,0-1.24-.25,2.8,2.8,0,0,0-1.24.25,2.22,2.22,0,0,0-.89.71,3,3,0,0,0-.54,1.11,5.85,5.85,0,0,0,0,2.88A3.06,3.06,0,0,0,140,25a2.28,2.28,0,0,0,.89.7A3,3,0,0,0,142.14,25.89Z" style="fill:#5e5e5e"/><path d="M150.8,18.3a3.9,3.9,0,0,1,1.53.29,3.17,3.17,0,0,1,1.14.83,3.83,3.83,0,0,1,.71,1.29,5.63,5.63,0,0,1,.24,1.7,5.5,5.5,0,0,1-.24,1.68,3.83,3.83,0,0,1-.71,1.29,3.17,3.17,0,0,1-1.14.83,4.35,4.35,0,0,1-3.07,0,3.17,3.17,0,0,1-1.14-.83,3.67,3.67,0,0,1-.71-1.29,5.2,5.2,0,0,1-.25-1.68,5.33,5.33,0,0,1,.25-1.7,3.67,3.67,0,0,1,.71-1.29,3.17,3.17,0,0,1,1.14-.83A3.92,3.92,0,0,1,150.8,18.3Zm0,7.59a3,3,0,0,0,1.24-.24,2.43,2.43,0,0,0,.89-.7,3.22,3.22,0,0,0,.53-1.1,5.85,5.85,0,0,0,0-2.88,3.18,3.18,0,0,0-.53-1.11,2.36,2.36,0,0,0-.89-.71,3.23,3.23,0,0,0-2.49,0,2.36,2.36,0,0,0-.89.71,3.18,3.18,0,0,0-.53,1.11,5.85,5.85,0,0,0,0,2.88,3.22,3.22,0,0,0,.53,1.1,2.43,2.43,0,0,0,.89.7A3,3,0,0,0,150.8,25.89Z" style="fill:#5e5e5e"/><path d="M159,18.29a3.73,3.73,0,0,1,1,.13,3.17,3.17,0,0,1,.79.36h2V19c0,.14-.07.21-.22.22l-1.21.09a2.28,2.28,0,0,1,.34.68,2.76,2.76,0,0,1,.13.82,2.51,2.51,0,0,1-.21,1,2.46,2.46,0,0,1-.58.8,2.84,2.84,0,0,1-.9.52,3.47,3.47,0,0,1-1.15.18,3.56,3.56,0,0,1-1.25-.21,1.67,1.67,0,0,0-.52.46.83.83,0,0,0-.19.51.66.66,0,0,0,.23.53A1.79,1.79,0,0,0,158,25a5.75,5.75,0,0,0,.9.1l1,.05c.35,0,.69.06,1,.11a3,3,0,0,1,.9.25,1.61,1.61,0,0,1,.64.5,1.41,1.41,0,0,1,.24.86,1.9,1.9,0,0,1-.25.95,2.3,2.3,0,0,1-.72.81,3.74,3.74,0,0,1-1.13.57,4.9,4.9,0,0,1-1.48.21,5.91,5.91,0,0,1-1.48-.17,3.57,3.57,0,0,1-1.06-.47,2,2,0,0,1-.64-.68,1.54,1.54,0,0,1-.22-.81,1.57,1.57,0,0,1,.42-1.09,2.7,2.7,0,0,1,1.14-.7,1.4,1.4,0,0,1-.63-.4,1,1,0,0,1-.24-.71.91.91,0,0,1,.07-.35,1.26,1.26,0,0,1,.19-.36,1.41,1.41,0,0,1,.31-.34,1.64,1.64,0,0,1,.42-.29,2.4,2.4,0,0,1-.89-.87,2.7,2.7,0,0,1-.11-2.32A2.32,2.32,0,0,1,157,19a2.35,2.35,0,0,1,.9-.52A3.32,3.32,0,0,1,159,18.29Zm3,8.64a.9.9,0,0,0-.2-.61,1.26,1.26,0,0,0-.53-.35,2.66,2.66,0,0,0-.75-.18c-.29,0-.58-.06-.9-.08l-.94-.05a6.07,6.07,0,0,1-.88-.1,5.84,5.84,0,0,0-.56.28,2.69,2.69,0,0,0-.45.35,1.67,1.67,0,0,0-.28.43,1.27,1.27,0,0,0-.11.52,1.22,1.22,0,0,0,.18.65,1.55,1.55,0,0,0,.53.52,2.75,2.75,0,0,0,.85.35,4.57,4.57,0,0,0,1.16.13,4.43,4.43,0,0,0,1.13-.14,3.35,3.35,0,0,0,.92-.38,1.88,1.88,0,0,0,.6-.59A1.35,1.35,0,0,0,162,26.93Zm-3-4.06a2.65,2.65,0,0,0,.92-.15,1.89,1.89,0,0,0,.67-.41,1.76,1.76,0,0,0,.41-.63A2.47,2.47,0,0,0,161,20a1.74,1.74,0,0,0-.42-.63,1.8,1.8,0,0,0-.68-.41,2.5,2.5,0,0,0-.9-.15,2.57,2.57,0,0,0-.9.15,1.8,1.8,0,0,0-.68.41A1.74,1.74,0,0,0,157,20a2.47,2.47,0,0,0,0,1.64,1.78,1.78,0,0,0,1.1,1A2.57,2.57,0,0,0,159,22.87Z" style="fill:#5e5e5e"/><path d="M165.47,14.75V26.39h-.76V14.75Z" style="fill:#5e5e5e"/><path d="M171.29,18.3a3.34,3.34,0,0,1,1.24.23,2.78,2.78,0,0,1,1,.68,3,3,0,0,1,.65,1.09,4.27,4.27,0,0,1,.24,1.49.43.43,0,0,1,0,.24.22.22,0,0,1-.17.06h-5.74v.16a5.33,5.33,0,0,0,.21,1.57,3.24,3.24,0,0,0,.59,1.14,2.27,2.27,0,0,0,.93.69,2.94,2.94,0,0,0,1.21.24,3.54,3.54,0,0,0,1-.14,3.26,3.26,0,0,0,.74-.29,4.16,4.16,0,0,0,.48-.3.52.52,0,0,1,.25-.13.18.18,0,0,1,.16.08l.21.26a2.05,2.05,0,0,1-.51.44,3.54,3.54,0,0,1-.7.36,4.59,4.59,0,0,1-1.72.32,3.77,3.77,0,0,1-1.49-.28,3.17,3.17,0,0,1-1.15-.83,3.75,3.75,0,0,1-.75-1.33,5.88,5.88,0,0,1-.26-1.8,4.94,4.94,0,0,1,.24-1.58,3.64,3.64,0,0,1,.71-1.25,3.07,3.07,0,0,1,1.12-.82A3.72,3.72,0,0,1,171.29,18.3Zm0,.57a2.92,2.92,0,0,0-1.1.19,2.4,2.4,0,0,0-.84.55,2.82,2.82,0,0,0-.58.87,4.18,4.18,0,0,0-.29,1.12h5.24a3.41,3.41,0,0,0-.18-1.14,2.33,2.33,0,0,0-.49-.86,2,2,0,0,0-.77-.54A2.46,2.46,0,0,0,171.3,18.87Z" style="fill:#5e5e5e"/><path d="M31,21.43a10,10,0,0,0-.16-1.84H22.33v3.48h4.85a4.16,4.16,0,0,1-1.8,2.72V28h2.9A8.77,8.77,0,0,0,31,21.43Z" style="fill:#4285f4;fill-rule:evenodd"/><path d="M22.33,30.22a8.59,8.59,0,0,0,6-2.17l-2.9-2.26a5.43,5.43,0,0,1-3.05.85,5.35,5.35,0,0,1-5-3.71h-3v2.33a9,9,0,0,0,8,5Z" style="fill:#34a853;fill-rule:evenodd"/><path d="M17.3,22.93A5.15,5.15,0,0,1,17,21.22a5.42,5.42,0,0,1,.28-1.71V17.18h-3a9,9,0,0,0,0,8.09l3-2.33Z" style="fill:#fbbc05;fill-rule:evenodd"/><path d="M22.34,15.8a4.89,4.89,0,0,1,3.44,1.35l2.58-2.58a8.65,8.65,0,0,0-6-2.35,9,9,0,0,0-8,5l3,2.34a5.36,5.36,0,0,1,5-3.71Z" style="fill:#ea4335;fill-rule:evenodd"/><path d="M13.34,12.22h18v18h-18Z" style="fill:none"/></svg>